<svg width="68" height="48" viewBox="0 0 68 48" fill="none" xmlns="http://www.w3.org/2000/svg">
    <path d="M46.0367 10.4783C43.8555 6.79753 40.447 4.00303 36.41 2.58571C32.373 1.1684 27.9657 1.21893 23.9623 2.72842C19.9589 4.23791 16.6154 7.10982 14.5192 10.8397C12.4229 14.5695 11.708 18.9187 12.5 23.1233C9.46709 23.2936 6.62026 24.6403 4.56503 26.8772C2.50981 29.1141 1.40837 32.0645 1.49501 35.101C1.58164 38.1374 2.8495 41.0203 5.02892 43.1363C7.20833 45.2524 10.1273 46.4346 13.165 46.4317H48.4417C51.4102 46.4317 54.333 45.6998 56.9513 44.301C59.5696 42.9021 61.8027 40.8793 63.4528 38.4116C65.103 35.944 66.1194 33.1076 66.412 30.1535C66.7047 27.1994 66.2645 24.2187 65.1305 21.4752C63.9966 18.7318 62.2038 16.3102 59.9108 14.4248C57.6179 12.5394 54.8955 11.2484 51.9846 10.666C49.0737 10.0836 46.0642 10.2277 43.2223 11.0857C40.3804 11.9437 37.7939 13.4891 35.6917 15.585" stroke="white" stroke-width="2" stroke-miterlimit="10"/>
    </svg>
    